<?xml version="1.0" encoding="utf-8"?>
<svg version="1.1" x="0px" y="0px" viewBox="0 0 26 26" enable-background="new 0 0 1000 1000" xmlns="http://www.w3.org/2000/svg">
  <g transform="matrix(0.025849, 0, 0, 0.026738, 0.028858, -0.259076)">
    <path d="M 698.7 554.7 L 812.7 554.7 C 829.8 554.7 849.3 567 856.7 582.5 L 856.7 582.5 L 637 621.3 C 657.8 598 678.7 576.3 698.7 554.7 L 698.7 554.7 Z M 310 554.7 L 190.7 554.7 L 190.7 554.7 L 383.4 666 L 406.1 662 C 374.7 622.3 341.1 588.4 310 554.7 Z M 541 757 L 786.5 898.7 L 969 898.7 C 986.2 898.7 994.5 886 987.4 870.3 L 876.7 626.6 L 876.7 626.6 L 591.1 677 C 573.1 701.1 556.1 727.4 541 757 Z M 496.6 803.6 L 661.4 898.7 L 661.4 898.7 L 31 898.7 C 13.7 898.7 5.4 886 12.6 870.3 L 57.7 771.1 L 57.7 771.1 L 350.8 719.4 L 489.5 799.5 C 491.6 801.3 494 802.7 496.6 803.6 Z M 81.2 719.3 L 137.2 596.1 L 287.5 682.9 L 81.2 719.3 L 81.2 719.3 Z"/>
    <path d="M 514.8 698.7 C 509.3 712.2 490.3 712.1 484.8 698.6 C 423.7 549 300.6 508 277.1 374.7 C 253.9 243.5 344.9 114.9 477.8 102.4 C 612.9 89.6 726.6 195.4 726.6 327.7 C 726.6 500.4 582.6 532.7 514.8 698.7 Z M 619.6 327.6 C 619.6 261.6 566 208.1 499.9 208.1 C 433.8 208.1 380.2 261.6 380.2 327.6 C 380.2 393.6 433.8 447.1 499.9 447.1 C 566 447.2 619.6 393.7 619.6 327.6 L 619.6 327.6 Z"/>
  </g>
</svg>