<?xml version="1.0" encoding="iso-8859-1"?>
<svg viewBox="0 0 64 64" width="64" height="64" xmlns="http://www.w3.org/2000/svg">
<path fill="#23527C" d="M44.5,38.4c-0.9,1.4-1.8,2.8-2.8,4.3c8.5,1.3,16.8,2.7,16.8,5.3c0,2.6-11.7,6-26.5,6c-14.9,0-26.5-3.1-26.5-6
	c0-2.9,8.3-4.1,16.8-5.3c-1-1.5-1.9-2.9-2.8-4.3C11.1,40,0.7,41.1,0.7,48S18.5,58.7,32,58.7S63.3,55.2,63.3,48S52.9,40,44.5,38.4z
	 M32,47.5c1.2,0,2.4-0.6,3.1-1.6c4.6-6.3,12.8-18.4,12.8-24.7c0-8.8-7.1-15.9-15.9-15.9c-8.8,0-15.9,7.1-15.9,15.9
	c0,6.3,8.2,18.4,12.8,24.7C29.6,47,30.8,47.5,32,47.5z M25.4,20.9c0-3.7,3-6.6,6.6-6.6c3.7,0,6.6,3,6.6,6.6s-3,6.6-6.6,6.6
	C28.3,27.6,25.4,24.6,25.4,20.9z"/>
</svg>
