<?xml version="1.0" encoding="iso-8859-1"?>
<svg viewBox="0 0 64 64" width="64" height="64" xmlns="http://www.w3.org/2000/svg">
<path d="M40,0v16h16L40,0z M40,20c-2.2,0-4-1.8-4-4V0H12C9.8,0,8,1.8,8,4v56c0,2.2,1.8,4,4,4h40c2.2,0,4-1.8,4-4V20H40z M13.2,36.1
	c-0.1-0.1-0.1-0.2-0.1-0.4v-2.1c0-0.2,0-0.3,0.1-0.4c0.1-0.1,0.2-0.1,0.4-0.1h3.7v-1.9h-3.7c-0.2,0-0.3,0-0.4-0.1
	c-0.1-0.1-0.1-0.2-0.1-0.4v-2.4c0-0.1,0-0.3,0.1-0.4c0.1-0.1,0.2-0.2,0.4-0.2h3.7V17.4c0-0.2,0-0.3,0.1-0.4c0.1-0.1,0.2-0.1,0.4-0.1
	h7.8c2.2,0,4,0.7,5.3,2c1.4,1.3,2.1,3.1,2.1,5.2c0,2.1-0.7,3.8-2.1,5.2c-1.4,1.3-3.2,2-5.3,2h-4.5v1.9h7.2c0.2,0,0.3,0,0.4,0.1
	c0.1,0.1,0.1,0.2,0.1,0.4v2.1c0,0.2,0,0.3-0.1,0.4c-0.1,0.1-0.2,0.1-0.4,0.1h-7.2v3.1c0,0.2-0.1,0.3-0.2,0.4
	c-0.1,0.1-0.2,0.1-0.4,0.1h-2.7c-0.2,0-0.3,0-0.4-0.1c-0.1-0.1-0.1-0.2-0.1-0.4v-3.1h-3.7C13.5,36.3,13.3,36.2,13.2,36.1z M46,56H18
	c-1.1,0-2-0.9-2-2c0-1.1,0.9-2,2-2h28c1.1,0,2,0.9,2,2C48,55.1,47.1,56,46,56z M46,48H18c-1.1,0-2-0.9-2-2c0-1.1,0.9-2,2-2h28
	c1.1,0,2,0.9,2,2C48,47.1,47.1,48,46,48z M46,40h-8c-1.1,0-2-0.9-2-2c0-1.1,0.9-2,2-2h8c1.1,0,2,0.9,2,2C48,39.1,47.1,40,46,40z
	 M46,32h-8c-1.1,0-2-0.9-2-2c0-1.1,0.9-2,2-2h8c1.1,0,2,0.9,2,2C48,31.1,47.1,32,46,32z M25.3,27.7h-4.2v-7.3h4.2
	c1.2,0,2.1,0.3,2.8,1c0.7,0.7,1.1,1.6,1.1,2.7c0,1.1-0.4,2-1.1,2.7C27.3,27.4,26.4,27.7,25.3,27.7z"/>
</svg>
