<?xml version="1.0" encoding="iso-8859-1"?>
<svg viewBox="0 0 64 64" width="64" height="64" xmlns="http://www.w3.org/2000/svg">
<path fill="#337AB7" d="M50.3,7.5L19.3,22.3v9.4l-5.4-2.4v-9.4L44.9,5L34.4,0.5c-1.4-0.6-3.7-0.6-5.1,0L3.7,11.9
	c-2,0.9-3.7,3.5-3.7,5.8l0.1,29c0,2.3,1.7,4.9,3.8,5.8l25.7,11c1.4,0.6,3.6,0.6,4.9,0l25.7-11c2.1-0.9,3.8-3.5,3.8-5.8l0.1-29
	c0-2.3-1.7-4.9-3.7-5.8L50.3,7.5z M58.1,30.2l-1.5,0.7v10.7c0,0.5-0.4,1-0.9,1.2l-2.3,1c-0.5,0.2-0.9,0-0.9-0.4V32.9L51,33.6
	c-0.7,0.3-1.1-0.2-0.8-0.9l3.5-7.4c0.4-0.7,1.2-1.2,1.6-0.8l3.6,4.1C59.3,28.9,58.8,29.8,58.1,30.2z M43.4,47.3
	c0,0.4-0.4,1-0.8,1.2l-2.1,0.9c-0.5,0.2-0.8,0-0.8-0.4l-0.1-10.1l-1.4,0.6c-0.6,0.3-1-0.2-0.7-0.9l3.2-7c0.3-0.7,1.1-1.1,1.5-0.7
	l3.4,4c0.3,0.4-0.1,1.3-0.7,1.6l-1.4,0.7L43.4,47.3z M60.6,44.4c0,0.2-0.2,0.5-0.5,0.6L36.2,55c-0.2,0.1-0.4,0-0.4-0.2v-1.2
	c0-0.2,0.2-0.5,0.4-0.6l23.9-10.3c0.3-0.1,0.5,0,0.5,0.2L60.6,44.4z"/>
</svg>
