<?xml version="1.0" encoding="iso-8859-1"?>
<svg viewBox="0 0 64 64" width="64" height="64" xmlns="http://www.w3.org/2000/svg">
<path d="M2.2,43.7V8.1c0-1.5,1.2-2.7,2.7-2.7h27.2c1.5,0,2.7,1.2,2.7,2.7v35.6c0,0.5-0.4,0.9-0.9,0.9H3.2
	C2.7,44.6,2.2,44.2,2.2,43.7z M24.2,53c0,3.1-2.5,5.7-5.7,5.7s-5.7-2.5-5.7-5.7c0-3.1,2.5-5.7,5.7-5.7S24.2,49.9,24.2,53z M21.4,53
	c0-1.6-1.3-2.8-2.8-2.8s-2.8,1.3-2.8,2.8c0,1.6,1.3,2.8,2.8,2.8S21.4,54.6,21.4,53z M13.6,47.3H0.9c-0.5,0-0.9,0.4-0.9,0.9V51
	c0,0.5,0.4,0.9,0.9,0.9h10.2C11.4,50.1,12.3,48.5,13.6,47.3z M54,53c0,3.1-2.5,5.7-5.7,5.7c-3.1,0-5.7-2.5-5.7-5.7
	c0-3.1,2.5-5.7,5.7-5.7C51.4,47.3,54,49.9,54,53z M51.1,53c0-1.6-1.3-2.8-2.8-2.8c-1.6,0-2.8,1.3-2.8,2.8c0,1.6,1.3,2.8,2.8,2.8
	C49.8,55.8,51.1,54.6,51.1,53z M64,48.2V51c0,0.5-0.4,0.9-0.9,0.9h-7.4c-0.5-3.6-3.7-6.4-7.4-6.4c-3.8,0-6.9,2.8-7.4,6.4H26
	c-0.3-1.8-1.2-3.4-2.5-4.6h14.1V21.2c0-1,0.8-1.8,1.8-1.8H48c2.4,0,4.7,1.2,6.1,3.2l5.6,8.2c0.8,1.2,1.3,2.6,1.3,4.1v12.4h2.2
	C63.6,47.3,64,47.7,64,48.2z M54.7,31l-4.4-6.3c-0.2-0.2-0.4-0.4-0.7-0.4h-6.9c-0.5,0-0.9,0.4-0.9,0.9v6.3c0,0.5,0.4,0.9,0.9,0.9
	H54C54.7,32.5,55.2,31.6,54.7,31z"/>
</svg>
