<?xml version="1.0" encoding="iso-8859-1"?>
<svg viewBox="0 0 64 64" width="64" height="64" xmlns="http://www.w3.org/2000/svg">
<path d="M42,40c1.5,0,2.9-0.6,4-1.6c1.1,1,2.5,1.6,4,1.6c3.3,0,6-2.7,6-6c0-3.3-2.7-6-6-6c-1.5,0-2.9,0.6-4,1.6
	c-1.1-1-2.5-1.6-4-1.6c-3.3,0-6,2.7-6,6C36,37.3,38.7,40,42,40z M60,8H12c-2.2,0-4,1.8-4,4v12h4h20h28v20H32v4h28c2.2,0,4-1.8,4-4
	V12C64,9.8,62.2,8,60,8z M60,16H12v-4h48V16z M14,28C6.3,28,0,34.3,0,42c0,7.7,6.3,14,14,14c7.7,0,14-6.3,14-14
	C28,34.3,21.7,28,14,28z M11.2,50.5l-7.1-7.1l2.8-2.8l4.2,4.2l9.9-9.9l2.8,2.8L11.2,50.5z"/>
</svg>
