<?xml version="1.0" encoding="iso-8859-1"?>
<svg viewBox="0 0 64 64" width="64" height="64" xmlns="http://www.w3.org/2000/svg">
<path fill="#3C763D" d="M17.5,27.3l-1.8,1.8c-0.7,0.7-0.7,1.9,0,2.7l11.7,11.7c0.7,0.7,1.9,0.7,2.7,0l29.3-29.3c0.7-0.7,0.7-1.9,0-2.7
	l-1.8-1.8c-0.7-0.7-1.9-0.7-2.7,0L30.1,34.5c-0.7,0.7-1.9,0.7-2.7,0l-7.3-7.3C19.5,26.5,18.3,26.5,17.5,27.3z M59.4,32
	c-1,0-1.8,0.8-1.9,1.7C56.6,47,45.5,57.6,32,57.6C17.9,57.6,6.4,46.1,6.4,32S17.9,6.4,32,6.4c2.2,0,4.1,0.2,6,0.7
	c0.6,0.2,1.3,0,1.8-0.5l2.1-2.1c1-1,0.6-2.8-0.8-3.2C38.1,0.5,35.1,0,32,0C14.4,0,0,14.4,0,32s14.4,32,32,32
	c16.9,0,30.9-13.3,31.9-30c0.1-1.1-0.8-2-1.9-2H59.4z"/>
</svg>
