<?xml version="1.0" encoding="iso-8859-1"?>
<svg viewBox="0 0 64 64" width="64" height="64" xmlns="http://www.w3.org/2000/svg">
<path d="M52.4,54.3c0,0.8-0.7,1.5-1.5,1.5H40.7c-0.8,0-1.5-0.7-1.5-1.5V31.7c-1.8,0.1-3.8,0.1-5.8,0.1V47c0,0.8-0.7,1.5-1.5,1.5
	H14.5c-0.8,0-1.5-0.7-1.5-1.5V30.8c-2.2-0.3-4.2-0.6-5.8-0.8v25.8c0,1.6,1.3,2.9,2.9,2.9h43.6c1.6,0,2.9-1.3,2.9-2.9V29.9
	c-1.3,0.2-2.7,0.4-4.4,0.7L52.4,54.3L52.4,54.3z M63.4,21.4L53.2,6.4c-0.6-0.7-1.4-1.1-2.3-1.1H13.1c-0.9,0-1.8,0.4-2.3,1.1
	L0.6,21.4c-0.6,0.8-0.8,1.8-0.4,2.7c0.3,0.9,1.1,1.6,2,1.9c0.5,0.1,11.4,3,29.8,3s29.4-2.9,29.8-3c0.9-0.3,1.7-1,2-1.9
	C64.2,23.1,64,22.1,63.4,21.4z M49.5,40.3c0.8,0,1.5,0.7,1.5,1.5s-0.7,1.5-1.5,1.5S48,42.5,48,41.7S48.7,40.3,49.5,40.3z"/>
</svg>
