<?xml version="1.0" encoding="iso-8859-1"?>
<svg viewBox="0 0 64 64" width="64" height="64" xmlns="http://www.w3.org/2000/svg">
<path d="M48,28H4c-2.2,0-4,1.8-4,4v28c0,2.2,1.8,4,4,4h44c2.2,0,4-1.8,4-4V32C52,29.8,50.2,28,48,28z M10.1,36H12
	c1.5,0,2.7,0.8,3.4,2h-5.3V36z M10.1,40H16v2h-5.9V40z M4,40c0-2.2,1.8-4,4-4h0.1v12H8c-2.2,0-4-1.8-4-4V40z M12,56H4v-4h8V56z
	 M12,48h-1.9v-4H16C16,46.2,14.2,48,12,48z M24,56h-8v-4h8V56z M36,56h-8v-4h8V56z M48,56h-8v-4h8V56z M42,48c-1.5,0-2.9-0.6-4-1.6
	c-1.1,1-2.5,1.6-4,1.6c-3.3,0-6-2.7-6-6s2.7-6,6-6c1.5,0,2.9,0.6,4,1.6c1.1-1,2.5-1.6,4-1.6c3.3,0,6,2.7,6,6S45.3,48,42,48z M20,20
	h12v4H20V20z M60,0H16c-2.2,0-4,1.8-4,4v20h4v-8h44v16h-4v4h4c2.2,0,4-1.8,4-4V4C64,1.8,62.2,0,60,0z M60,8H16V4h44V8z M48,20h8v4
	h-8V20z"/>
</svg>
