<?xml version="1.0" encoding="utf-8"?>
<svg viewBox="0 0 512 512" width="512" height="512" xmlns="http://www.w3.org/2000/svg">
<path fill="#ffffff" d="M34.1,281.6c0,4.7,3.8,8.5,8.5,8.5h29.9c4.7,0,8.5-3.8,8.5-8.5s-3.8-8.5-8.5-8.5H42.7
	C37.9,273.1,34.1,276.9,34.1,281.6z M153.6,426.7c-18.8,0-34.1,15.3-34.1,34.1c0,18.8,15.3,34.1,34.1,34.1s34.1-15.3,34.1-34.1
	S172.4,426.7,153.6,426.7z M153.6,477.9c-9.4,0-17.1-7.7-17.1-17.1s7.7-17.1,17.1-17.1c9.4,0,17.1,7.7,17.1,17.1
	S163,477.9,153.6,477.9z M68.3,230.4c0-4.7-3.8-8.5-8.5-8.5H8.5c-4.7,0-8.5,3.8-8.5,8.5s3.8,8.5,8.5,8.5h51.2
	C64.5,238.9,68.3,235.1,68.3,230.4z M85.3,324.3H25.6c-4.7,0-8.5,3.8-8.5,8.5s3.8,8.5,8.5,8.5h59.7c4.7,0,8.5-3.8,8.5-8.5
	S90.1,324.3,85.3,324.3z M409.6,426.7c-18.8,0-34.1,15.3-34.1,34.1c0,18.8,15.3,34.1,34.1,34.1c18.8,0,34.1-15.3,34.1-34.1
	S428.4,426.7,409.6,426.7z M409.6,477.9c-9.4,0-17.1-7.7-17.1-17.1s7.7-17.1,17.1-17.1s17.1,7.7,17.1,17.1S419,477.9,409.6,477.9z
	 M510,122.5c-1.6-1.9-4-3.1-6.6-3.1h-384c-4.7,0-8.5,3.8-8.5,8.5s3.8,8.5,8.5,8.5h373.8c-12.3,67-34.3,183.3-40.5,202.1
	c-6.4,19.2-25.3,19.8-26,19.8H162.1c-16.8,0-24.1-8.8-26-11.5l-50.9-297c-0.1-0.4-0.2-0.8-0.3-1.3c-1.1-3.2-11.1-31.4-33.7-31.4
	H25.6C15.3,17.1,0,23.9,0,42.7s15.3,25.6,25.6,25.6h17.1c4.7,0,8.5-3.8,8.5-8.5s-3.8-8.5-8.5-8.5h-17c-3.9-0.1-8.6-1.7-8.6-8.5
	s4.7-8.4,8.5-8.5h25.6c8.5,0,15.3,13.7,17.3,19.2l51.1,298c0.1,0.8,0.4,1.6,0.8,2.4c0.4,0.9,11.2,21.8,41.8,21.8h264.5
	c11,0,33.9-6.6,42.2-31.4c8.6-25.9,41.6-206.8,43-214.5C512.3,127,511.6,124.5,510,122.5z M435.2,392.5H196.3
	c-12.8,0-22.1,16.7-24.7,21.8c-2.1,4.2-0.4,9.3,3.8,11.4c1.2,0.6,2.5,0.9,3.8,0.9c3.1,0,6.1-1.7,7.6-4.7c2.8-5.6,7.7-11.8,9.4-12.4
	h238.9c4.7,0,8.5-3.8,8.5-8.5S439.9,392.5,435.2,392.5z"/>
</svg>
