<?xml version="1.0" encoding="iso-8859-1"?>
<svg viewBox="0 0 64 64" width="64" height="64" xmlns="http://www.w3.org/2000/svg">
<path fill="#31708F" d="M51.5,8.2L33.8,0.3c-1-0.4-2.5-0.4-3.5,0l-7.2,3.2l21.3,10.2v6.5l-3.7,1.7v-6.5L19.4,5.2l-6.9,3
	c-1.4,0.6-2.5,2.4-2.5,4l0.1,19.9c0,1.6,1.2,3.4,2.6,4l17.6,7.6c0.9,0.4,2.4,0.4,3.4,0l3.7-1.6c0,0,0.1-0.1,0.1-0.1
	c-0.6-0.5-1-1.2-1-2v-2c0-1.4,1.1-2.5,2.5-2.5c0.6,0,1.1,0.2,1.5,0.5v-3c0-1.4,1.1-2.5,2.5-2.5c0.5,0,1.1,0.2,1.5,0.5v-2
	c0-1.4,1.1-2.5,2.5-2.5c0.7,0,1.3,0.3,1.8,0.8c0.5,0.5,0.7,1.1,0.7,1.7v2c0,0.8-0.4,1.5-1,2c0.6,0.5,1,1.2,1,2v1.9l1.8-0.8
	c1.4-0.6,2.6-2.4,2.6-4L54,12.2C54,10.6,52.8,8.8,51.5,8.2z M22.6,24l2.3-2.8c0.3-0.3,0.8,0,1,0.5l2.2,4.8c0.2,0.5-0.1,0.8-0.5,0.6
	l-1-0.4l-0.1,6.9c0,0.3-0.2,0.4-0.5,0.3l-1.4-0.6c-0.3-0.1-0.5-0.5-0.5-0.8l-0.1-6.9l-1-0.5C22.7,24.9,22.4,24.2,22.6,24z
	 M13.5,19.6l2.5-2.8c0.3-0.3,0.8,0.1,1.1,0.5l2.4,5.1c0.2,0.5-0.1,0.8-0.5,0.6l-1-0.5v7.2c0,0.3-0.3,0.4-0.6,0.3l-1.6-0.7
	c-0.3-0.1-0.6-0.5-0.6-0.8v-7.4l-1-0.5C13.6,20.5,13.2,19.8,13.5,19.6z M29.4,37.7c0,0.1-0.1,0.2-0.3,0.1l-16.4-6.9
	c-0.2-0.1-0.3-0.3-0.3-0.4v-1c0-0.1,0.1-0.2,0.3-0.1l16.4,7.1c0.1,0.1,0.3,0.3,0.3,0.4V37.7z M47,34c-0.6,0-1,0.5-1,1v14
	c0,5-4,9-9,9H25c-0.6,0-1,0.5-1,1v2.1L16.7,56l7.3-5.1V53c0,0.6,0.5,1,1,1h9c3.3,0,6-2.7,6-6v-4c0-0.6-0.5-1-1-1c-0.5,0-1,0.5-1,1v4
	c0,2.2-1.8,4-4,4h-8v-3c0-0.6-0.5-1-1-1c-0.2,0-0.4,0.1-0.6,0.2l-10,7c-0.5,0.3-0.6,0.9-0.2,1.4c0.1,0.1,0.1,0.2,0.2,0.2l10,7
	c0.5,0.3,1.1,0.2,1.4-0.2c0.1-0.2,0.2-0.4,0.2-0.6v-3h11c6.1,0,11-4.9,11-11V35C48,34.4,47.5,34,47,34z M39,37c-0.6,0-1,0.5-1,1v2
	c0,0.6,0.5,1,1,1s1-0.5,1-1v-2C40,37.4,39.5,37,39,37z M47,28c-0.6,0-1,0.5-1,1v2c0,0.6,0.5,1,1,1c0.5,0,1-0.5,1-1v-2
	C48,28.4,47.5,28,47,28z M43,32c-0.6,0-1,0.5-1,1v8c0,0.6,0.5,1,1,1c0.5,0,1-0.5,1-1v-8C44,32.4,43.5,32,43,32z"/>
</svg>
