<?xml version="1.0" encoding="iso-8859-1"?>
<svg viewBox="0 0 64 64" width="64" height="64" xmlns="http://www.w3.org/2000/svg">
<path fill="#337AB7" d="M64,49.3V55c0,1.4-1.2,2.6-2.6,2.6h-2.8c-0.5-3.4-3.4-6.1-7-6.1c-3.5,0-6.5,2.6-7,6.1h-14
	c-0.5-3.4-3.4-6.1-7-6.1c-3.5,0-6.5,2.6-7,6.1h-3.5c-1.4,0-2.6-1.2-2.6-2.6v-5.7H64z M4.6,31.8l-4.3,0.5l6.4,0.8
	C5.9,32.7,5.2,32.2,4.6,31.8z M29.1,58.7c0,2.9-2.4,5.3-5.3,5.3c-3,0-5.3-2.4-5.3-5.3c0-3,2.4-5.4,5.3-5.4S29.1,55.7,29.1,58.7z
	 M26.4,58.7c0-1.5-1.2-2.7-2.7-2.7S21,57.2,21,58.7s1.2,2.7,2.7,2.7C25.2,61.3,26.4,60.1,26.4,58.7z M10.7,47.9v-5.1L0,40.8
	l18.7-1.6L0,36.5l13-1.3c1,0.1,2,0.2,3,0.2c6.2,0,11.7-2.9,15.3-7.4h11.5c1.4,0,2.6,1.2,2.6,2.6v1.9h5.1c0.9,0,1.8,0.4,2.4,1
	l10.1,10c0.6,0.6,1,1.5,1,2.4v1.9L10.7,47.9L10.7,47.9z M48.4,43.5c0,0.2,0.2,0.4,0.4,0.4h9.8c0.4,0,0.5-0.4,0.3-0.7L51,35.6
	c-0.1-0.1-0.2-0.1-0.3-0.1h-1.9c-0.2,0-0.4,0.2-0.4,0.4C48.4,35.9,48.4,43.5,48.4,43.5z M57,58.7c0,2.9-2.4,5.3-5.3,5.3
	c-3,0-5.4-2.4-5.4-5.3c0-3,2.4-5.4,5.4-5.4C54.6,53.3,57,55.7,57,58.7z M54.3,58.7c0-1.5-1.2-2.7-2.7-2.7s-2.7,1.2-2.7,2.7
	s1.2,2.7,2.7,2.7C53.1,61.3,54.3,60.1,54.3,58.7z M32.2,16.1c0,8.9-7.2,16.1-16.1,16.1S0,25,0,16.1S7.2,0,16.1,0S32.2,7.2,32.2,16.1
	z M28.5,16.1c0-6.9-5.6-12.4-12.4-12.4C9.2,3.7,3.7,9.2,3.7,16.1s5.6,12.4,12.4,12.4C23,28.6,28.5,23,28.5,16.1z M22.4,17.6
	c0.2-0.9-0.3-1.7-1.1-2l-4-1.1V7.7c0-0.9-0.7-1.6-1.6-1.6s-1.6,0.7-1.6,1.6v8c0,0.7,0.5,1.4,1.2,1.5l5.2,1.4c0.1,0,0.3,0.1,0.4,0.1
	C21.5,18.7,22.2,18.3,22.4,17.6z"/>
</svg>
