<?xml version="1.0" encoding="iso-8859-1"?>
<svg viewBox="0 0 64 64" width="64" height="64" xmlns="http://www.w3.org/2000/svg">
<path d="M62.6,52h-1.4c0.5,0.8,0.8,1.8,0.7,2.9h0.7c0.8,0,1.4-0.6,1.4-1.4C64,52.6,63.4,52,62.6,52z M53,52H34.7
	c0.5,0.8,0.8,1.8,0.7,2.9h17C52.3,53.8,52.5,52.8,53,52z M27.3,30.4c0-0.8-0.6-1.4-1.4-1.4h-2.2c0.2,0.6,0.2,1.3,0,2
	c-0.1,0.3-0.2,0.6-0.3,0.8h1v21.5c0,0.8,0.6,1.4,1.4,1.4h0.1c-0.1-1.4,0.4-2.8,1.4-3.8L27.3,30.4L27.3,30.4z M46.3,42.5v5.2
	c0,0.6-0.5,1-1,1H32.5c-0.6,0-1-0.5-1-1v-5.2c0-0.6,0.5-1,1-1h12.7C45.8,41.5,46.3,41.9,46.3,42.5z M11,6.3c2.5,0,4.5,2,4.5,4.5
	s-2,4.5-4.5,4.5s-4.5-2-4.5-4.5S8.5,6.3,11,6.3z M20.3,28.1c-0.7-0.2-6.1-1.5-6.8-1.7l-2.6-7.3l3.9,5.6l0.4-4.4
	c0.1-1.7-1.1-3.1-2.8-3.3L7,16.5c-1.7-0.1-3.1,1.1-3.3,2.8L2.6,34.8c0,0,1.5,9.4,1.5,9.4L0.2,54.4c-0.5,1.3,0.2,2.7,1.4,3.1
	c1.3,0.5,2.7-0.2,3.1-1.4l4.1-10.9C9,44.9,9,44.4,8.9,44c-0.1-0.8-1.2-7.8-1.4-8.8l1.3,0.1l3.9,8.6l2.7,11.9
	c0.3,1.3,1.6,2.1,2.9,1.8c1.3-0.3,2.1-1.6,1.8-2.9l-2.8-12.1c0-0.2-0.1-0.3-0.2-0.5l-3.3-7.4l0.2-2L11,31.9c-1.8-0.4-2.8-2-2.9-3
	l-0.9-8.2l2.9,8c0.2,0.6,0.7,1.1,1.4,1.3l7.9,2c1,0.3,2-0.3,2.4-1.3C22.1,29.6,21.5,28.4,20.3,28.1z M32.6,51.8
	c-0.5-0.4-1.2-0.7-2-0.7c-1.8,0-3.2,1.5-3.2,3.2c0,1.8,1.5,3.2,3.2,3.2c1.8,0,3.2-1.5,3.2-3.2C33.9,53.4,33.4,52.4,32.6,51.8z
	 M30.6,55.6c-0.7,0-1.2-0.6-1.2-1.2c0-0.7,0.6-1.2,1.2-1.2c0.7,0,1.2,0.6,1.2,1.2C31.9,55.1,31.3,55.6,30.6,55.6z M57.1,51.2
	c-1.8,0-3.2,1.5-3.2,3.2c0,1.8,1.5,3.2,3.2,3.2c1.8,0,3.2-1.5,3.2-3.2C60.3,52.6,58.9,51.2,57.1,51.2z M57.1,55.6
	c-0.7,0-1.2-0.6-1.2-1.2c0-0.7,0.6-1.2,1.2-1.2c0.7,0,1.2,0.6,1.2,1.2C58.3,55.1,57.8,55.6,57.1,55.6z M46.3,33.2v5.2
	c0,0.6-0.5,1-1,1H32.5c-0.6,0-1-0.5-1-1v-5.2c0-0.6,0.5-1,1-1h12.7C45.8,32.1,46.3,32.6,46.3,33.2z M55,48.8h-5.2c-0.6,0-1-0.5-1-1
	V35c0-0.6,0.5-1,1-1H55c0.6,0,1,0.5,1,1v12.7C56.1,48.3,55.6,48.8,55,48.8z"/>
</svg>
