<?xml version="1.0" encoding="utf-8"?>
<svg viewBox="0 0 512 512" width="512" height="512" xmlns="http://www.w3.org/2000/svg">
  <path d="M 416 32 L 335.999 32 C 335.992 32 335.986 32.001 335.979 32.001 C 328.674 22.292 317.059 16 304 16 L 283.61 16 C 277.966 6.242 267.481 0 256 0 C 244.519 0 234.034 6.242 228.39 16 L 208 16 C 194.941 16 183.326 22.292 176.021 32.001 C 176.014 32.001 176.007 32 176 32 L 96 32 C 73.944 32 56 49.944 56 72 L 56 472 C 56 494.056 73.944 512 96 512 L 416 512 C 438.056 512 456 494.056 456 472 L 456 72 C 456 49.944 438.056 32 416 32 Z M 184 56 C 184 42.767 194.767 32 208 32 L 233.47 32 C 236.855 32 239.874 29.869 241.008 26.68 C 243.278 20.292 249.303 16 256 16 C 262.697 16 268.722 20.292 270.992 26.68 C 272.126 29.869 275.145 32 278.53 32 L 304 32 C 317.233 32 328 42.767 328 56 L 328 80 L 184 80 L 184 56 Z M 440 472 C 440 485.233 429.233 496 416 496 L 96 496 C 82.767 496 72 485.233 72 472 L 72 72 C 72 58.767 82.767 48 96 48 L 168.805 48 C 168.278 50.586 168 53.261 168 56 L 168 88 C 168 92.418 171.582 96 176 96 L 336 96 C 340.418 96 344 92.418 344 88 L 344 56 C 344 53.261 343.722 50.586 343.195 48 L 416 48 C 429.233 48 440 58.767 440 72 L 440 472 Z" fill="#32b141" transform="matrix(1, 0, 0, 1, 0, 0)"/>
  <path d="M 416 64 L 368 64 C 363.582 64 360 67.582 360 72 C 360 76.418 363.582 80 368 80 L 408 80 L 408 464 L 104 464 L 104 80 L 144 80 C 148.418 80 152 76.418 152 72 C 152 67.582 148.418 64 144 64 L 96 64 C 91.582 64 88 67.582 88 72 L 88 472 C 88 476.418 91.582 480 96 480 L 416 480 C 420.418 480 424 476.418 424 472 L 424 72 C 424 67.582 420.418 64 416 64 Z" fill="#32b141" transform="matrix(1, 0, 0, 1, 0, 0)"/>
  <path d="M 256 32 C 253.89 32 251.83 32.85 250.34 34.34 C 248.85 35.83 248 37.89 248 40 C 248 42.1 248.85 44.17 250.34 45.66 C 251.83 47.15 253.89 48 256 48 C 258.1 48 260.17 47.15 261.66 45.66 C 263.15 44.17 264 42.11 264 40 C 264 37.89 263.15 35.83 261.66 34.34 C 260.17 32.849 258.1 32 256 32 Z" fill="#32b141" transform="matrix(1, 0, 0, 1, 0, 0)"/>
  <path d="M 130.343 186.343 C 127.218 189.467 127.218 194.532 130.343 197.656 L 154.343 221.656 C 155.905 223.218 157.952 223.999 160 223.999 C 162.048 223.999 164.095 223.218 165.657 221.656 L 205.657 181.656 C 208.782 178.532 208.782 173.467 205.657 170.343 C 202.533 167.219 197.468 167.219 194.344 170.343 L 160 204.686 L 141.657 186.343 C 138.533 183.219 133.467 183.219 130.343 186.343 Z" fill="#32b141" transform="matrix(1, 0, 0, 1, 0, 0)"/>
  <path d="M 205.657 258.343 C 202.533 255.219 197.468 255.219 194.344 258.343 L 160 292.686 L 141.657 274.343 C 138.533 271.219 133.468 271.219 130.344 274.343 C 127.219 277.467 127.219 282.532 130.344 285.656 L 154.344 309.656 C 155.906 311.218 157.953 311.999 160.001 311.999 C 162.049 311.999 164.096 311.218 165.658 309.656 L 205.658 269.656 C 208.781 266.533 208.781 261.467 205.657 258.343 Z" fill="#32b141" transform="matrix(1, 0, 0, 1, 0, 0)"/>
  <path d="M 194.343 346.343 L 160 380.686 L 141.657 362.343 C 138.533 359.219 133.468 359.219 130.344 362.343 C 127.219 365.467 127.219 370.532 130.344 373.656 L 154.344 397.656 C 155.906 399.218 157.953 399.999 160.001 399.999 C 162.049 399.999 164.096 399.218 165.658 397.656 L 205.658 357.656 C 208.783 354.532 208.783 349.467 205.658 346.343 C 202.533 343.219 197.467 343.219 194.343 346.343 Z" fill="#32b141" transform="matrix(1, 0, 0, 1, 0, 0)"/>
  <path d="M 240 200 L 376 200 C 380.418 200 384 196.418 384 192 C 384 187.582 380.418 184 376 184 L 240 184 C 235.582 184 232 187.582 232 192 C 232 196.418 235.582 200 240 200 Z" fill="#32b141" transform="matrix(1, 0, 0, 1, 0, 0)"/>
  <path d="M 240 288 L 376 288 C 380.418 288 384 284.418 384 280 C 384 275.582 380.418 272 376 272 L 240 272 C 235.582 272 232 275.582 232 280 C 232 284.418 235.582 288 240 288 Z" fill="#32b141" transform="matrix(1, 0, 0, 1, 0, 0)"/>
  <path d="M 240 376 L 376 376 C 380.418 376 384 372.418 384 368 C 384 363.582 380.418 360 376 360 L 240 360 C 235.582 360 232 363.582 232 368 C 232 372.418 235.582 376 240 376 Z" fill="#32b141" transform="matrix(1, 0, 0, 1, 0, 0)"/>
</svg>
