<?xml version="1.0" encoding="utf-8"?>
<svg viewBox="0 0 512 512" width="512" height="512" xmlns="http://www.w3.org/2000/svg">
  <g transform="matrix(1, 0, 0, 1, 0, 7.105427357601002e-15)">
    <path d="M277.993,404.827c-2.843-2.842-7.45-2.844-10.295-0.001l-83.85,83.849c-3.957,3.958-9.219,6.137-14.816,6.137    s-10.859-2.179-14.816-6.137L20.677,355.136c-8.169-8.17-8.169-21.463,0-29.633l83.881-83.88c2.842-2.842,2.842-7.451,0-10.293    c-2.842-2.842-7.45-2.843-10.294,0l-83.881,83.88c-13.844,13.845-13.844,36.374,0,50.22l133.54,133.539    c6.707,6.707,15.624,10.401,25.11,10.401s18.403-3.694,25.11-10.401l83.85-83.849    C280.835,412.278,280.835,407.669,277.993,404.827z" fill="#32b141"/>
  </g>
  <g transform="matrix(1, 0, 0, 1, 0, 7.105427357601002e-15)">
    <path d="M490.347,22.42C466.297-1.63,443.743,0.572,429.06,6.655c-27.299,11.307-46.629,43.201-55.723,61.207    c-5.897,11.678-10.857,24.108-14.542,36.084l-118.417,1.29c-13.053,0.142-25.326,5.304-34.557,14.535l-75.331,75.33    c-2.842,2.842-2.842,7.451,0,10.293c2.843,2.843,7.451,2.843,10.294,0l75.331-75.33c6.523-6.524,15.196-10.172,24.422-10.272    l114.351-1.246c-0.772,3.429-1.414,6.768-1.919,9.99c-7.38-0.107-14.793,2.642-20.412,8.26    c-5.341,5.342-8.283,12.444-8.283,19.999c0,7.554,2.942,14.657,8.283,19.998c5.514,5.514,12.756,8.27,19.999,8.27    s14.485-2.757,19.999-8.27c11.026-11.027,11.026-28.969-0.001-39.997c-1.684-1.684-3.531-3.108-5.489-4.278    c0.614-4.431,1.556-9.169,2.77-14.09c5.49,0.271,10.666,2.54,14.608,6.48c4.264,4.264,6.576,9.933,6.51,15.964l-1.394,127.942    c-0.1,9.225-3.747,17.898-10.272,24.422L304.3,368.222c-2.842,2.842-2.842,7.451,0,10.293c1.422,1.422,3.284,2.132,5.147,2.132    c1.862,0,3.726-0.711,5.147-2.132l74.987-74.987c9.23-9.231,14.392-21.504,14.534-34.557l1.174-107.723    c8.243-3.066,26.109-10.186,44.963-20.729c34.953-19.547,55.289-40.617,60.444-62.627C515.118,59.01,508.272,40.345,490.347,22.42    z M352.557,170.52c-3.666,0.001-7.113-1.427-9.705-4.02c-2.593-2.593-4.02-6.039-4.02-9.705c0-3.666,1.427-7.113,4.019-9.705    c2.445-2.445,5.589-3.759,8.794-3.97c-0.003,0.285-0.011,0.574-0.011,0.855c0,13.762,3.975,20.785,8.366,24.347    C357.801,169.748,355.24,170.52,352.557,170.52z M496.525,74.565c-4.11,17.573-22.5,35.948-53.183,53.141    c-14.618,8.191-28.875,14.308-37.881,17.871l0.05-4.546c0.108-9.978-3.718-19.359-10.774-26.416    c-5.708-5.708-12.939-9.297-20.775-10.405c3.282-9.895,7.471-20.084,12.37-29.786c13.926-27.575,31.53-47.374,48.299-54.32    c15.612-6.467,30.471-2.342,45.422,12.61C494.374,47.034,499.762,60.724,496.525,74.565z" fill="#32b141"/>
  </g>
  <g transform="matrix(1, 0, 0, 1, 0, 7.105427357601002e-15)">
    <path d="M233.271,202.268c-12.504-12.504-27.28-16.563-41.895-1.949l-24.033,24.033c-14.615,14.615-10.556,29.391,1.949,41.895    c12.341,12.342,27.28,16.564,41.895,1.949l24.033-24.033C249.835,229.548,245.613,214.609,233.271,202.268z M223.527,232.471    l-24.033,24.033c-6.657,6.658-13.477,5.684-19.81-0.648c-6.333-6.333-7.146-12.992-0.488-19.65l24.033-24.033    c6.658-6.658,13.317-5.845,19.649,0.488C229.21,218.994,230.185,225.814,223.527,232.471z" fill="#32b141"/>
  </g>
  <g transform="matrix(1, 0, 0, 1, 0, 7.105427357601002e-15)">
    <path d="M305.046,261.376c-1.949-1.949-4.709-3.085-7.794-1.949l-178.95,59.758c-1.298,0.325-2.274,0.974-3.086,1.786    c-2.923,2.923-3.409,8.607,0.326,12.342c2.272,2.273,5.682,3.41,8.605,2.436l178.463-59.27c1.137-0.487,2.112-1.137,3.086-2.111    C309.431,270.633,308.294,264.624,305.046,261.376z" fill="#32b141"/>
  </g>
  <g transform="matrix(1, 0, 0, 1, 0, 7.105427357601002e-15)">
    <path d="M249.834,329.255c-12.504-12.505-27.28-16.564-41.895-1.949l-24.033,24.033c-14.615,14.615-10.556,29.391,1.949,41.895    c12.341,12.341,27.28,16.563,41.895,1.949l24.033-24.033C266.398,356.535,262.176,341.596,249.834,329.255z M240.091,359.457    l-24.033,24.033c-6.658,6.658-13.479,5.684-19.811-0.649c-6.334-6.334-7.144-12.991-0.486-19.648l24.033-24.033    c6.657-6.658,13.314-5.847,19.648,0.486C245.775,345.979,246.749,352.799,240.091,359.457z" fill="#32b141"/>
  </g>
</svg>
