<?xml version="1.0" encoding="utf-8"?>
<svg viewBox="0 0 512 512" width="512" height="512" xmlns="http://www.w3.org/2000/svg">
  <path d="M 159.978 220.073 C 159.978 247.902 170.115 276.084 187.789 297.394 C 206.375 319.803 230.638 332.145 256.107 332.145 C 281.573 332.145 305.806 319.81 324.344 297.413 C 341.96 276.129 352.063 247.958 352.063 220.122 L 352.063 195.604 C 359.187 164.925 360.681 138.375 360.67 121.441 C 360.655 99.577 358.277 84.471 356.057 77.625 C 354.878 73.988 351.341 71.779 347.685 72.133 C 347.081 72.079 346.462 72.085 345.835 72.174 C 330.956 74.3 312.703 70.634 293.377 66.753 C 262.065 60.466 226.689 53.372 199.633 72.13 C 199.392 72.108 199.149 72.093 198.902 72.093 C 183.717 72.093 170.235 78.161 160.939 89.179 C 152.352 99.357 147.623 113.36 147.623 128.609 C 147.623 153.584 158.247 199.739 159.977 207.09 L 159.977 220.073 Z M 312.018 287.212 C 296.576 305.87 276.719 316.146 256.107 316.146 C 235.484 316.146 215.595 305.859 200.104 287.181 C 184.771 268.694 175.978 244.234 175.978 220.074 L 175.978 210.479 C 175.978 190.692 189.265 163.793 194.308 154.298 C 266.254 146.077 314.41 165.944 325.342 171.06 L 336.063 196.322 L 336.063 220.123 C 336.063 244.296 327.299 268.749 312.018 287.212 Z M 198.903 88.093 C 199.483 88.093 200.048 88.028 200.593 87.91 C 202.791 88.378 205.171 87.929 207.102 86.463 C 228.673 70.079 259.966 76.362 290.229 82.44 C 306.424 85.692 321.916 88.802 336.316 88.802 C 338.31 88.802 340.283 88.742 342.235 88.614 C 344.646 102.161 346.593 131.325 341.171 167.398 L 338.912 162.076 C 338.208 160.418 336.967 159.047 335.387 158.182 C 333.089 156.925 278.21 127.603 188.895 138.815 C 186.276 138.948 183.774 140.358 182.364 142.798 C 181.852 143.684 174.891 155.84 168.865 171.386 C 166.13 156.57 163.623 139.908 163.623 128.607 C 163.624 100.621 181.342 88.093 198.903 88.093 Z" fill="#32b141" transform="matrix(1, 0, 0, 1, 0, 0)"/>
  <path d="M 393.884 349.856 C 393.712 349.808 393.538 349.766 393.363 349.729 L 345.765 339.773 L 333.182 320.692 C 333.094 320.557 333 320.425 332.904 320.296 C 330.616 317.246 327.133 315.233 323.348 314.773 C 319.564 314.314 315.699 315.434 312.747 317.849 C 312.695 317.891 312.643 317.935 312.593 317.978 L 256 366.695 L 199.406 317.979 C 199.355 317.936 199.304 317.893 199.253 317.85 C 196.301 315.435 192.436 314.314 188.652 314.773 C 184.867 315.233 181.383 317.246 179.096 320.296 C 178.999 320.425 178.906 320.557 178.818 320.692 L 166.235 339.773 L 118.637 349.729 C 118.462 349.766 118.288 349.808 118.116 349.856 C 104.276 353.733 92.502 362.314 84.066 374.671 C 76.37 385.943 72.132 399.551 72.132 412.988 L 72.132 428.029 C 72.132 441.224 83.882 451.96 98.325 451.96 L 237.785 451.96 C 237.795 451.96 237.805 451.961 237.815 451.961 C 237.826 451.961 237.837 451.96 237.848 451.96 L 274.151 451.96 C 274.162 451.96 274.173 451.961 274.184 451.961 C 274.194 451.961 274.204 451.96 274.214 451.96 L 413.674 451.96 C 428.117 451.96 439.867 441.225 439.867 428.029 L 439.867 412.988 C 439.867 399.55 435.629 385.943 427.933 374.671 C 419.499 362.315 407.724 353.734 393.884 349.856 Z M 321.241 331.647 L 331.173 346.707 L 291.424 401.361 L 267.753 377.691 L 321.241 331.647 Z M 250.752 420.026 L 261.248 420.026 L 264.435 435.961 L 247.565 435.961 L 250.752 420.026 Z M 264 399.643 C 264 402.277 262.395 404.025 261.333 404.025 L 250.666 404.025 C 249.604 404.025 247.999 402.277 247.999 399.643 L 247.999 396.564 L 255.999 388.564 L 263.999 396.564 L 263.999 399.643 Z M 190.759 331.647 L 244.247 377.69 L 220.576 401.36 L 180.827 346.706 L 190.759 331.647 Z M 88.131 428.029 L 88.131 412.988 C 88.131 394.116 99.827 371.736 122.185 365.332 L 167.671 355.818 L 213.143 418.342 C 214.519 420.235 216.654 421.429 218.987 421.613 C 219.196 421.63 219.405 421.637 219.613 421.637 C 221.726 421.637 223.763 420.8 225.269 419.294 L 234.598 409.965 C 235.021 410.747 235.486 411.497 235.998 412.207 L 231.248 435.959 L 98.325 435.959 C 92.799 435.96 88.131 432.328 88.131 428.029 Z M 423.869 428.029 C 423.869 432.328 419.201 435.96 413.676 435.96 L 280.752 435.96 L 276.002 412.208 C 276.514 411.498 276.979 410.748 277.402 409.966 L 286.731 419.295 C 288.237 420.801 290.274 421.638 292.387 421.638 C 292.595 421.638 292.804 421.63 293.013 421.614 C 295.346 421.431 297.481 420.236 298.857 418.343 L 344.329 355.819 L 389.815 365.333 C 412.173 371.737 423.869 394.117 423.869 412.989 L 423.869 428.029 Z" fill="#32b141" transform="matrix(1, 0, 0, 1, 0, 0)"/>
  <path d="M 64.165 235.079 C 64.165 254.516 70.779 272.756 82.788 286.44 C 94.977 300.329 111.255 307.978 128.622 307.978 C 141.643 307.978 154.179 303.632 164.876 295.411 C 168.379 292.719 169.036 287.696 166.343 284.193 C 163.65 280.69 158.63 280.032 155.125 282.725 C 147.25 288.778 138.085 291.978 128.622 291.978 C 101.902 291.978 80.164 266.453 80.164 235.079 L 80.164 230.377 C 80.164 217.733 85.393 200.995 88.133 193.089 C 105.399 191.559 120.817 193.823 133.409 195.683 L 134.836 195.893 C 135.232 195.951 135.624 195.979 136.012 195.979 C 139.914 195.979 143.331 193.12 143.916 189.143 C 144.56 184.772 141.538 180.707 137.167 180.063 L 135.746 179.854 C 121.044 177.682 102.751 174.982 81.383 177.718 C 81.358 177.721 81.332 177.723 81.307 177.727 C 81.304 177.727 81.301 177.727 81.298 177.728 C 81.27 177.731 81.243 177.739 81.215 177.743 C 80.986 177.775 80.758 177.814 80.533 177.866 C 80.406 177.895 80.284 177.934 80.16 177.969 C 80.037 178.004 79.914 178.034 79.793 178.074 C 79.636 178.126 79.485 178.188 79.333 178.249 C 79.248 178.284 79.161 178.314 79.076 178.352 C 78.921 178.421 78.771 178.498 78.622 178.577 C 78.542 178.619 78.461 178.657 78.382 178.702 C 78.245 178.779 78.115 178.864 77.983 178.949 C 77.894 179.007 77.804 179.061 77.717 179.122 C 77.607 179.2 77.502 179.284 77.397 179.366 C 77.295 179.446 77.192 179.523 77.094 179.608 C 77.01 179.68 76.932 179.757 76.852 179.833 C 76.741 179.937 76.63 180.04 76.525 180.15 C 76.46 180.219 76.4 180.292 76.337 180.362 C 76.228 180.486 76.118 180.608 76.016 180.739 C 75.956 180.815 75.903 180.896 75.846 180.974 C 75.753 181.103 75.658 181.231 75.572 181.367 C 75.501 181.478 75.438 181.596 75.373 181.711 C 75.312 181.819 75.247 181.923 75.19 182.035 C 75.082 182.248 74.984 182.467 74.895 182.689 C 74.887 182.708 74.878 182.726 74.87 182.745 C 74.87 182.746 74.868 182.751 74.867 182.752 C 74.86 182.771 74.853 182.789 74.846 182.807 C 74.707 183.164 74.13 184.659 73.307 186.994 C 72.668 181.907 72.249 177.116 72.249 173.278 C 72.249 155.987 80.593 148.247 88.863 148.247 C 89.254 148.247 89.635 148.21 90.011 148.156 C 90.39 148.211 90.772 148.248 91.157 148.248 C 92.844 148.248 94.544 147.717 95.99 146.618 C 103.457 140.946 113.09 139.04 127.22 140.435 C 131.613 140.873 135.533 137.657 135.968 133.26 C 136.402 128.864 133.19 124.947 128.793 124.513 C 117.951 123.442 102.258 123.158 88.602 132.255 C 69.541 132.409 56.25 149.232 56.25 173.279 C 56.25 190.127 62.892 220.832 64.165 226.562 L 64.165 235.079 Z" fill="#32b141" transform="matrix(1, 0, 0, 1, 0, 0)"/>
  <path d="M 56 379.979 L 20.387 379.979 C 17.876 379.979 16 378.477 16 377.133 L 16 366.892 C 16 355.027 23.297 340.972 37.248 336.927 L 66.38 330.833 L 81.425 352.537 C 82.979 354.778 85.471 355.98 88.007 355.98 C 89.579 355.98 91.168 355.517 92.557 354.554 C 96.188 352.037 97.091 347.053 94.574 343.422 L 79.59 321.805 L 84.015 315.095 L 115.214 338.389 C 118.755 341.033 123.767 340.305 126.41 336.765 C 129.054 333.225 128.327 328.212 124.786 325.569 L 90.543 300.003 C 88.022 298.018 84.768 297.104 81.577 297.49 C 78.313 297.886 75.309 299.622 73.336 302.253 C 73.239 302.382 73.147 302.514 73.058 302.649 L 65.07 314.762 L 33.694 321.325 C 33.519 321.362 33.345 321.404 33.173 321.452 C 11.395 327.552 0 348.929 0 366.892 L 0 377.133 C 0 387.525 9.146 395.979 20.387 395.979 L 56 395.979 C 60.418 395.979 64 392.397 64 387.979 C 64 383.561 60.418 379.979 56 379.979 Z" fill="#32b141" transform="matrix(1, 0, 0, 1, 0, 0)"/>
  <path d="M 375.84 131.977 C 387.602 132.212 400.606 134.317 413.183 136.352 C 422.685 137.889 431.787 139.348 439.691 139.856 C 439.412 158.8 438.17 175.836 436.76 189.553 C 436.744 189.541 436.727 189.531 436.711 189.519 C 436.585 189.427 436.455 189.341 436.324 189.257 C 436.263 189.218 436.209 189.174 436.147 189.137 C 436.078 189.095 436.006 189.056 435.936 189.014 C 435.927 189.009 435.918 189.003 435.908 188.998 C 419.899 179.356 400.497 173.793 376.598 172.001 C 372.188 171.667 368.353 174.975 368.022 179.38 C 367.691 183.786 370.995 187.626 375.401 187.956 C 395.786 189.485 412.291 193.961 425.769 201.608 C 427.664 206.077 431.835 217.388 431.835 230.377 L 431.835 235.079 C 431.835 266.454 410.097 291.978 383.377 291.978 C 373.914 291.978 364.75 288.778 356.874 282.725 C 353.371 280.033 348.348 280.69 345.656 284.193 C 342.964 287.696 343.62 292.718 347.123 295.411 C 357.82 303.633 370.356 307.978 383.377 307.978 C 400.745 307.978 417.023 300.329 429.211 286.44 C 441.22 272.755 447.834 254.515 447.834 235.079 L 447.834 226.433 C 448.958 220.453 455.563 183.211 455.74 133.989 C 455.945 133.2 456.035 132.367 455.985 131.509 C 455.734 127.24 452.175 123.958 447.95 123.989 C 447.883 123.987 447.817 123.979 447.749 123.979 C 447.594 123.979 447.443 123.994 447.29 124.002 C 439.548 124.404 427.982 122.538 415.737 120.557 C 403.226 118.533 389.046 116.238 376.159 115.981 C 371.713 115.874 368.089 119.402 368 123.819 C 367.913 128.236 371.423 131.889 375.84 131.977 Z" fill="#32b141" transform="matrix(1, 0, 0, 1, 0, 0)"/>
  <path d="M 478.828 321.451 C 478.656 321.403 478.482 321.361 478.307 321.324 L 446.931 314.761 L 438.943 302.648 C 438.854 302.514 438.761 302.382 438.665 302.252 C 436.692 299.621 433.688 297.885 430.424 297.489 C 427.231 297.103 423.979 298.016 421.458 300.002 L 387.215 325.568 C 383.674 328.211 382.947 333.224 385.591 336.764 C 388.235 340.305 393.248 341.032 396.787 338.388 L 427.986 315.094 L 432.411 321.804 L 417.426 343.42 C 414.909 347.051 415.812 352.035 419.443 354.552 C 420.833 355.515 422.421 355.978 423.993 355.978 C 426.528 355.978 429.021 354.776 430.575 352.535 L 445.62 330.831 L 474.752 336.925 C 488.702 340.97 496 355.026 496 366.89 L 496 377.131 C 496 378.474 494.124 379.977 491.613 379.977 L 456 379.977 C 451.582 379.977 448 383.559 448 387.977 C 448 392.395 451.582 395.977 456 395.977 L 491.613 395.977 C 502.854 395.977 512 387.523 512 377.131 L 512 366.89 C 512 348.929 500.605 327.552 478.828 321.451 Z" fill="#32b141" transform="matrix(1, 0, 0, 1, 0, 0)"/>
</svg>
