<?xml version="1.0" encoding="utf-8"?>
<svg viewBox="0 0 128 30" width="128" height="30" xmlns="http://www.w3.org/2000/svg">
    <path fill="#d4d4d4" d="M122.995,12.955l-0.013,0.006l-3.852,1.736c-0.044-0.295-0.138-0.579-0.267-0.844 c-0.017-0.042-0.035-0.084-0.054-0.125l2.563-1.154l0.741-0.333l-0.204-0.452l1.126,0.024l0.212,0.473 C123.364,12.541,123.247,12.841,122.995,12.955z M122.534,10.519v0.215h-1.598l-0.99-1.7h-0.768v1.7h-1.479V4.957h1.122 l-1.139-2.543l-3.622-1.37h-0.001V1.041c-0.104-0.039-0.22-0.03-0.319,0.013c-0.099,0.044-0.181,0.127-0.22,0.232v0.001 l-1.372,3.621l2.983,6.612c-0.37,0.045-0.694,0.155-0.973,0.315l-3.024-6.702c-0.058-0.129-0.058-0.268-0.011-0.389l1.446-3.816 V0.926c0.139-0.369,0.417-0.648,0.753-0.8c0.332-0.148,0.728-0.173,1.095-0.031h0.002l0.001-0.002v0.001l3.817,1.446 c0.131,0.051,0.231,0.149,0.284,0.267l1.414,3.152h0.297c0.325,0.003,0.612,0.055,0.859,0.157c0.25,0.102,0.46,0.239,0.632,0.412 c0.174,0.172,0.305,0.37,0.404,0.59c0.096,0.22,0.153,0.451,0.174,0.69c0.02,0.24,0.003,0.477-0.053,0.71 c-0.119,0.487-0.412,0.951-0.856,1.203L122.534,10.519z M120.851,7.004c0.001-0.123-0.019-0.239-0.066-0.348 c-0.044-0.109-0.111-0.198-0.203-0.268c-0.092-0.069-0.208-0.107-0.349-0.11c-0.174-0.004-0.349-0.006-0.528-0.002 c-0.178,0.001-0.355,0.001-0.527,0.002v1.444h1.055c0.135-0.003,0.247-0.036,0.338-0.106c0.09-0.069,0.159-0.158,0.206-0.267 C120.824,7.241,120.847,7.126,120.851,7.004z M127.297,4.957c-0.235,0-0.471,0-0.707,0v3.829c-0.003,0.119-0.027,0.221-0.077,0.309 c-0.05,0.088-0.116,0.161-0.2,0.219c-0.085,0.059-0.177,0.102-0.281,0.129c-0.104,0.03-0.209,0.045-0.317,0.045 c-0.109,0-0.215-0.014-0.32-0.045c-0.104-0.027-0.197-0.07-0.284-0.129c-0.085-0.058-0.153-0.131-0.203-0.219 c-0.05-0.088-0.076-0.19-0.078-0.309V4.957c-0.231,0-0.467,0-0.705,0c-0.238,0-0.473,0-0.706,0v3.856 c0.001,0.253,0.043,0.486,0.126,0.696c0.084,0.211,0.197,0.396,0.343,0.558c0.147,0.162,0.317,0.3,0.509,0.411 c0.194,0.113,0.401,0.196,0.625,0.255c0.225,0.057,0.455,0.085,0.693,0.085c0.239,0,0.469-0.028,0.694-0.085 c0.222-0.059,0.431-0.141,0.623-0.255c0.193-0.111,0.362-0.249,0.506-0.411c0.145-0.161,0.258-0.347,0.339-0.558 C127.958,9.299,128,9.066,128,8.813V4.957C127.769,4.957,127.535,4.957,127.297,4.957z M114.284,2.263 c-0.429,0.194-0.621,0.697-0.428,1.124c0.194,0.429,0.699,0.62,1.126,0.427c0.428-0.193,0.62-0.696,0.426-1.124 C115.216,2.26,114.713,2.069,114.284,2.263z M97.665,12.134c1.499-0.411,2.545-1.218,2.545-3.381V8.615 c0-2.664-1.816-3.619-4.577-3.619h-2.301h-1.187h-1.482v10.999h2.743v-3.622h1.492l2.627,3.622h2.926v-0.33L97.665,12.134 L97.665,12.134z M95.633,7.012c1.3,0,1.839,0.694,1.839,1.603v0.138c0,0.91-0.536,1.603-1.839,1.603h-2.301V7.012H95.633z M80.401,4.996v10.998h7.992v-2.136h-5.231v-2.514h4.755V9.287h-4.755V7.054h5.084V4.996H80.401z M67.253,4.981h-1.007v11.029h2.744 v-5.661l2.717,3.081h0.348l2.717-3.081v5.661h2.743V4.981h-0.987l-4.638,5.232L67.253,4.981z M22.03,4.996v10.998h8.084v-2.105 h-5.341V4.996H22.03z M11.801,4.996v10.998h7.992v-2.136h-5.23v-2.514h4.755V9.287h-4.755V7.054h5.084V4.996H11.801z M3.419,15.994 h2.652V7.038h3.402V4.996H0v2.042h3.419V15.994z M32.242,4.996v10.998h7.992v-2.136h-5.23v-2.514h4.755V9.287h-4.755V7.054h5.084 V4.996H32.242z M42.303,9v2.991c-0.092,3.563,2.039,4.024,4.488,4.024h3.74v-2.149h-3.74c-1.277,0-1.803-0.81-1.803-1.874V9 c0-1.065,0.529-1.875,1.803-1.875h3.74V4.976h-3.74C44.342,4.976,42.303,5.555,42.303,9z M111.942,15.875 c0.012,0.055,0.018,0.112,0.033,0.166h-2.082l-0.674-1.58h-4.442l-0.673,1.58h-2.793v-0.314l4.92-10.778h1.532l4.239,9.282 c-0.13,0.413-0.171,0.856-0.122,1.289c0.005,0.047,0.01,0.093,0.017,0.139C111.91,15.732,111.925,15.804,111.942,15.875z M108.512,12.516l-1.519-3.571l-1.508,3.571H108.512z M62.934,10.495c0-1.168-0.263-2.279-0.735-3.279l1.664-0.696l-1.095-2.38 L51.292,9.538v0.957v0.957l5.865,2.759c0.55-0.295,1.327-1.124,1.676-1.846l-4.473-1.871l5.684-2.378l0.016,0.034 c0.337,0.715,0.525,1.509,0.525,2.343v0.001v0c0,0.835-0.188,1.628-0.525,2.343c-0.361,0.771-0.914,1.461-1.571,2l4.278,2.012 l1.095-2.38l-1.664-0.696c0.472-1,0.735-2.11,0.735-3.279V10.495L62.934,10.495z M0.501,21.489h2.047v3.524h0.393v-3.856H0.102 v3.856h0.399V21.489z M5.869,25.09c1.206,0,1.754-0.432,1.754-2.025c0-1.571-0.553-2.003-1.754-2.003 c-1.195,0-1.748,0.432-1.748,2.003C4.121,24.659,4.669,25.09,5.869,25.09z M5.869,21.4c0.99,0,1.333,0.26,1.333,1.677 c0,1.344-0.343,1.665-1.333,1.665c-0.979,0-1.317-0.321-1.317-1.665C4.553,21.66,4.89,21.4,5.869,21.4z M8.599,23.049 c0,1.571,0.57,2.042,1.765,2.042c0.343,0,0.78-0.061,1.079-0.155l-0.127-0.354c-0.232,0.089-0.647,0.144-0.946,0.144 c-0.974,0-1.339-0.265-1.339-1.676c0-1.416,0.365-1.627,1.339-1.627c0.299,0,0.714,0.055,0.946,0.15l0.127-0.359 c-0.299-0.089-0.736-0.15-1.079-0.15C9.169,21.062,8.599,21.472,8.599,23.049z M13.635,21.489h1.333v-0.332h-3.076v0.332h1.339 v3.524h0.404V21.489z M18.489,25.013h0.448c-0.465-1.068-1.013-2.556-1.45-3.856h-0.68c-0.537,1.289-1.013,2.567-1.455,3.856h0.393 c0.127-0.404,0.26-0.797,0.398-1.189h1.881C18.179,24.244,18.34,24.642,18.489,25.013z M17.211,21.467 c0.216,0.675,0.454,1.372,0.691,2.025h-1.637c0.243-0.669,0.509-1.339,0.786-2.025H17.211z M21.821,22.938 c0.686-0.061,0.764-0.409,0.764-0.869c0-0.481-0.149-0.913-0.918-0.913h-1.854v3.856h1.915c0.619,0,0.963-0.371,0.963-1.09 C22.69,23.397,22.552,22.971,21.821,22.938z M21.667,22.783h-1.455v-1.295h1.455c0.404,0,0.509,0.243,0.509,0.631 C22.175,22.462,22.065,22.783,21.667,22.783z M21.722,24.681h-1.51v-1.571H21.7c0.399,0,0.564,0.343,0.564,0.808 C22.264,24.365,22.131,24.681,21.722,24.681z M25.652,21.157v3.524h-1.35v-3.524h-0.399v3.856h4.149v0.852h0.337l0.111-1.184h-0.708 v-3.524H27.4v3.524h-1.35v-3.524H25.652z M29.738,21.157h-0.399v3.856h0.542c0.686-1.018,1.378-2.18,1.986-3.281v3.281h0.393v-3.856 h-0.476c-0.609,1.128-1.306,2.29-2.047,3.436V21.157z M36.479,25.013c-0.841-1.809-1.234-1.975-1.782-2.119 c0.238-0.16,0.858-0.741,1.71-1.737h-0.526c-0.719,0.891-1.466,1.61-1.825,1.875v-1.875h-0.399v3.856h0.399v-1.897 c0.841,0.055,1.256,0.309,1.947,1.897H36.479z M39.829,23.049c0,1.571,0.57,2.042,1.765,2.042c0.343,0,0.78-0.061,1.079-0.155 l-0.127-0.354c-0.232,0.089-0.647,0.144-0.946,0.144c-0.974,0-1.339-0.265-1.339-1.676c0-1.416,0.365-1.627,1.339-1.627 c0.299,0,0.714,0.055,0.946,0.15l0.127-0.359c-0.299-0.089-0.736-0.15-1.079-0.15C40.399,21.062,39.829,21.472,39.829,23.049z M44.047,21.157h-0.399v3.856h0.542c0.686-1.018,1.378-2.18,1.986-3.281v3.281h0.393v-3.856h-0.476 c-0.609,1.128-1.306,2.29-2.047,3.436V21.157z M47.756,23.049c0,1.571,0.57,2.042,1.765,2.042c0.343,0,0.78-0.061,1.079-0.155 l-0.127-0.354c-0.232,0.089-0.647,0.144-0.946,0.144c-0.974,0-1.339-0.265-1.339-1.676c0-1.416,0.365-1.627,1.339-1.627 c0.299,0,0.714,0.055,0.946,0.15l0.127-0.359c-0.299-0.089-0.736-0.15-1.079-0.15C48.326,21.062,47.756,21.472,47.756,23.049z M52.792,21.489h1.333v-0.332h-3.076v0.332h1.339v3.524h0.404V21.489z M54.996,21.157v3.856h2.639v-0.332h-2.241v-1.565h1.587 v-0.332h-1.587v-1.295h2.241v-0.332H54.996z M60.509,24.05c-0.376-0.963-0.802-1.931-1.261-2.893h-0.598v3.856h0.387v-3.414 c0.454,0.996,0.885,1.997,1.3,2.993h0.293c0.409-0.974,0.846-1.975,1.317-2.993v3.414h0.398v-3.856h-0.559 C61.316,22.114,60.879,23.082,60.509,24.05z M68.889,21.157h-2.462v3.856h1.915c0.619,0,0.963-0.371,0.963-1.09 c0-0.669-0.205-1.14-1.023-1.14h-1.455v-1.295h2.064V21.157z M68.335,24.681h-1.51v-1.571h1.488c0.399,0,0.564,0.343,0.564,0.808 C68.878,24.365,68.745,24.681,68.335,24.681z M70.517,21.157v3.856h2.639v-0.332h-2.241v-1.565h1.587v-0.332h-1.587v-1.295h2.241 v-0.332H70.517z M75.858,22.938c0.686-0.061,0.791-0.476,0.791-0.935c0-0.62-0.382-0.941-1.46-0.941 c-0.442,0-0.885,0.083-1.195,0.15l0.1,0.332c0.271-0.089,0.731-0.144,1.096-0.144c0.863,0,1.051,0.188,1.051,0.653 c0,0.514-0.21,0.73-0.93,0.73h-0.553v0.326h0.553c0.747,0,1.018,0.222,1.018,0.83c0,0.587-0.277,0.814-1.14,0.814 c-0.371,0-0.83-0.05-1.14-0.144l-0.094,0.321c0.332,0.083,0.841,0.16,1.234,0.16c1.035,0,1.566-0.282,1.566-1.14 C76.755,23.425,76.588,22.971,75.858,22.938z M79.506,25.09c1.206,0,1.754-0.432,1.754-2.025c0-1.571-0.553-2.003-1.754-2.003 c-1.195,0-1.748,0.432-1.748,2.003C77.758,24.659,78.306,25.09,79.506,25.09z M79.506,21.4c0.99,0,1.333,0.26,1.333,1.677 c0,1.344-0.343,1.665-1.333,1.665c-0.979,0-1.317-0.321-1.317-1.665C78.189,21.66,78.527,21.4,79.506,21.4z M82.845,21.489h2.047 v3.524h0.393v-3.856h-2.839v3.856h0.399V21.489z M89.325,25.013h0.448c-0.464-1.068-1.012-2.556-1.449-3.856h-0.681 c-0.536,1.289-1.012,2.567-1.454,3.856h0.393c0.127-0.404,0.259-0.797,0.398-1.189h1.88C89.015,24.244,89.175,24.642,89.325,25.013z M88.047,21.467c0.215,0.675,0.453,1.372,0.691,2.025h-1.637c0.243-0.669,0.509-1.339,0.785-2.025H88.047z M90.439,23.049 c0,1.571,0.569,2.042,1.765,2.042c0.342,0,0.78-0.061,1.078-0.155l-0.127-0.354c-0.232,0.089-0.648,0.144-0.946,0.144 c-0.974,0-1.339-0.265-1.339-1.676c0-1.416,0.365-1.627,1.339-1.627c0.298,0,0.714,0.055,0.946,0.15l0.127-0.359 c-0.298-0.089-0.736-0.15-1.078-0.15C91.009,21.062,90.439,21.472,90.439,23.049z M94.657,23.126h2.047v1.887h0.393v-3.856h-0.393 v1.61h-2.047v-1.61h-0.398v3.856h0.398V23.126z M100.025,25.09c1.206,0,1.754-0.432,1.754-2.025c0-1.571-0.553-2.003-1.754-2.003 c-1.195,0-1.748,0.432-1.748,2.003C98.277,24.659,98.825,25.09,100.025,25.09z M100.025,21.4c0.99,0,1.333,0.26,1.333,1.677 c0,1.344-0.343,1.665-1.333,1.665c-0.979,0-1.316-0.321-1.316-1.665C98.708,21.66,99.045,21.4,100.025,21.4z M102.755,23.049 c0,1.571,0.569,2.042,1.765,2.042c0.342,0,0.78-0.061,1.078-0.155l-0.127-0.354c-0.232,0.089-0.648,0.144-0.946,0.144 c-0.974,0-1.339-0.265-1.339-1.676c0-1.416,0.365-1.627,1.339-1.627c0.298,0,0.714,0.055,0.946,0.15l0.127-0.359 c-0.298-0.089-0.736-0.15-1.078-0.15C103.324,21.062,102.755,21.472,102.755,23.049z M107.792,21.489h1.333v-0.332h-3.076v0.332 h1.339v3.524h0.404V21.489z M110.394,21.157h-0.398v3.856h0.542c0.686-1.018,1.378-2.18,1.986-3.281v3.281h0.393v-3.856h-0.476 c-0.608,1.128-1.305,2.29-2.047,3.436V21.157z M113.555,13.366c-0.529,0.529-0.793,1.168-0.793,1.917c0,0.757,0.264,1.4,0.793,1.93 c0.529,0.529,1.172,0.793,1.93,0.793c0.748,0,1.387-0.264,1.917-0.793c0.529-0.529,0.794-1.172,0.794-1.93 c0-0.748-0.265-1.387-0.794-1.917s-1.168-0.794-1.917-0.794C114.728,12.573,114.085,12.837,113.555,13.366z M113.177,15.283 c0-0.642,0.226-1.191,0.678-1.642c0.452-0.452,0.995-0.678,1.63-0.678c0.635,0,1.178,0.226,1.63,0.678 c0.452,0.451,0.678,0.999,0.678,1.642c0,0.643-0.226,1.193-0.678,1.648c-0.451,0.456-0.995,0.684-1.63,0.684 c-0.635,0-1.178-0.227-1.63-0.684C113.403,16.476,113.177,15.926,113.177,15.283z M116.852,14.575c0-0.333-0.096-0.565-0.287-0.696 c-0.191-0.13-0.515-0.195-0.971-0.195c-0.603,0-1.046,0.012-1.331,0.037v3.101h0.537v-1.27h0.794c0.236,0,0.399,0.106,0.488,0.317 l0.317,0.953h0.574l-0.354-0.977c-0.081-0.276-0.24-0.431-0.476-0.464v-0.025C116.616,15.3,116.852,15.039,116.852,14.575z M114.801,14.111h0.782c0.277,0,0.468,0.035,0.574,0.104c0.105,0.069,0.154,0.21,0.146,0.421c0.008,0.195-0.041,0.33-0.146,0.403	c-0.106,0.073-0.297,0.114-0.574,0.122h-0.782V14.111z"/>
</svg>
